solid vcg
  facet normal  0.000000e+00  0.000000e+00 -1.000000e+00
    outer loop
      vertex   4.232645e-03  7.364176e-08  6.180406e-03
      vertex   4.232645e-03  1.000000e+00  6.180406e-03
      vertex   1.993230e-01  9.807853e-01  6.180406e-03
    endloop
  endfacet
  facet normal  0.000000e+00  0.000000e+00  1.000000e+00
    outer loop
      vertex   9.850179e-01  1.950904e-01  2.006180e+00
      vertex   9.281121e-01  3.826835e-01  2.006180e+00
      vertex   7.433363e-01  3.061469e-01  2.006180e+00
    endloop
  endfacet
  facet normal  0.000000e+00  0.000000e+00  1.000000e+00
    outer loop
      vertex   7.433363e-01  3.061469e-01  2.006180e+00
      vertex   7.888609e-01  1.560724e-01  2.006180e+00
      vertex   9.850179e-01  1.950904e-01  2.006180e+00
    endloop
  endfacet
  facet normal  9.801759e-02  9.951847e-01 -0.000000e+00
    outer loop
      vertex   4.232645e-03  1.000000e+00  6.180406e-03
      vertex   4.232645e-03  1.000000e+00  2.006180e+00
      vertex   1.993230e-01  9.807853e-01  2.006180e+00
    endloop
  endfacet
  facet normal  9.801759e-02  9.951847e-01  0.000000e+00
    outer loop
      vertex   1.993230e-01  9.807853e-01  2.006180e+00
      vertex   1.993230e-01  9.807853e-01  6.180406e-03
      vertex   4.232645e-03  1.000000e+00  6.180406e-03
    endloop
  endfacet
  facet normal  0.000000e+00  0.000000e+00 -1.000000e+00
    outer loop
      vertex   4.232645e-03  7.364176e-08  6.180406e-03
      vertex   1.993230e-01  9.807853e-01  6.180406e-03
      vertex   3.869161e-01  9.238796e-01  6.180406e-03
    endloop
  endfacet
  facet normal -0.000000e+00  0.000000e+00  1.000000e+00
    outer loop
      vertex  -3.784512e-01 -9.238793e-01  2.006180e+00
      vertex  -1.908581e-01 -9.807851e-01  2.006180e+00
      vertex  -1.518399e-01 -7.846280e-01  2.006180e+00
    endloop
  endfacet
  facet normal  0.000000e+00  0.000000e+00  1.000000e+00
    outer loop
      vertex  -1.518399e-01 -7.846280e-01  2.006180e+00
      vertex  -3.019144e-01 -7.391034e-01  2.006180e+00
      vertex  -3.784512e-01 -9.238793e-01  2.006180e+00
    endloop
  endfacet
  facet normal  2.902846e-01  9.569404e-01 -0.000000e+00
    outer loop
      vertex   1.993230e-01  9.807853e-01  6.180406e-03
      vertex   1.993230e-01  9.807853e-01  2.006180e+00
      vertex   3.869161e-01  9.238796e-01  2.006180e+00
    endloop
  endfacet
  facet normal  2.902846e-01  9.569404e-01  0.000000e+00
    outer loop
      vertex   3.869161e-01  9.238796e-01  2.006180e+00
      vertex   3.869161e-01  9.238796e-01  6.180406e-03
      vertex   1.993230e-01  9.807853e-01  6.180406e-03
    endloop
  endfacet
  facet normal  0.000000e+00  0.000000e+00 -1.000000e+00
    outer loop
      vertex   4.232645e-03  7.364176e-08  6.180406e-03
      vertex   3.869161e-01  9.238796e-01  6.180406e-03
      vertex   5.598029e-01  8.314697e-01  6.180406e-03
    endloop
  endfacet
  facet normal  0.000000e+00  0.000000e+00  1.000000e+00
    outer loop
      vertex  -5.513365e-01  8.314704e-01  2.006180e+00
      vertex  -7.028732e-01  7.071077e-01  2.006180e+00
      vertex  -5.614520e-01  5.656863e-01  2.006180e+00
    endloop
  endfacet
  facet normal  0.000000e+00  0.000000e+00  1.000000e+00
    outer loop
      vertex  -5.614520e-01  5.656863e-01  2.006180e+00
      vertex  -4.402226e-01  6.651765e-01  2.006180e+00
      vertex  -5.513365e-01  8.314704e-01  2.006180e+00
    endloop
  endfacet
  facet normal  4.713967e-01  8.819212e-01 -0.000000e+00
    outer loop
      vertex   3.869161e-01  9.238796e-01  6.180406e-03
      vertex   3.869161e-01  9.238796e-01  2.006180e+00
      vertex   5.598029e-01  8.314697e-01  2.006180e+00
    endloop
  endfacet
  facet normal  4.713967e-01  8.819212e-01  0.000000e+00
    outer loop
      vertex   5.598029e-01  8.314697e-01  2.006180e+00
      vertex   5.598029e-01  8.314697e-01  6.180406e-03
      vertex   3.869161e-01  9.238796e-01  6.180406e-03
    endloop
  endfacet
  facet normal  0.000000e+00  0.000000e+00 -1.000000e+00
    outer loop
      vertex   4.232645e-03  7.364176e-08  6.180406e-03
      vertex   5.598029e-01  8.314697e-01  6.180406e-03
      vertex   7.113394e-01  7.071068e-01  6.180406e-03
    endloop
  endfacet
  facet normal  0.000000e+00  0.000000e+00  1.000000e+00
    outer loop
      vertex   3.869159e-01 -9.238796e-01  2.006180e+00
      vertex   5.598028e-01 -8.314696e-01  2.006180e+00
      vertex   4.486888e-01 -6.651756e-01  2.006180e+00
    endloop
  endfacet
  facet normal  0.000000e+00  0.000000e+00  1.000000e+00
    outer loop
      vertex   4.486888e-01 -6.651756e-01  2.006180e+00
      vertex   3.103793e-01 -7.391036e-01  2.006180e+00
      vertex   3.869159e-01 -9.238796e-01  2.006180e+00
    endloop
  endfacet
  facet normal  6.343933e-01  7.730104e-01 -0.000000e+00
    outer loop
      vertex   5.598029e-01  8.314697e-01  6.180406e-03
      vertex   5.598029e-01  8.314697e-01  2.006180e+00
      vertex   7.113394e-01  7.071068e-01  2.006180e+00
    endloop
  endfacet
  facet normal  6.343933e-01  7.730104e-01  0.000000e+00
    outer loop
      vertex   7.113394e-01  7.071068e-01  2.006180e+00
      vertex   7.113394e-01  7.071068e-01  6.180406e-03
      vertex   5.598029e-01  8.314697e-01  6.180406e-03
    endloop
  endfacet
  facet normal  0.000000e+00  0.000000e+00 -1.000000e+00
    outer loop
      vertex   4.232645e-03  7.364176e-08  6.180406e-03
      vertex   7.113394e-01  7.071068e-01  6.180406e-03
      vertex   8.357023e-01  5.555702e-01  6.180406e-03
    endloop
  endfacet
  facet normal  0.000000e+00  0.000000e+00  1.000000e+00
    outer loop
      vertex   5.598029e-01  8.314697e-01  2.006180e+00
      vertex   3.869161e-01  9.238796e-01  2.006180e+00
      vertex   3.103794e-01  7.391037e-01  2.006180e+00
    endloop
  endfacet
  facet normal -0.000000e+00  0.000000e+00  1.000000e+00
    outer loop
      vertex   3.103794e-01  7.391037e-01  2.006180e+00
      vertex   4.486889e-01  6.651758e-01  2.006180e+00
      vertex   5.598029e-01  8.314697e-01  2.006180e+00
    endloop
  endfacet
  facet normal  7.730104e-01  6.343934e-01 -0.000000e+00
    outer loop
      vertex   7.113394e-01  7.071068e-01  6.180406e-03
      vertex   7.113394e-01  7.071068e-01  2.006180e+00
      vertex   8.357023e-01  5.555702e-01  2.006180e+00
    endloop
  endfacet
  facet normal  7.730104e-01  6.343934e-01  0.000000e+00
    outer loop
      vertex   8.357023e-01  5.555702e-01  2.006180e+00
      vertex   8.357023e-01  5.555702e-01  6.180406e-03
      vertex   7.113394e-01  7.071068e-01  6.180406e-03
    endloop
  endfacet
  facet normal  0.000000e+00  0.000000e+00 -1.000000e+00
    outer loop
      vertex   4.232645e-03  7.364176e-08  6.180406e-03
      vertex   8.357023e-01  5.555702e-01  6.180406e-03
      vertex   9.281121e-01  3.826835e-01  6.180406e-03
    endloop
  endfacet
  facet normal  0.000000e+00  0.000000e+00  1.000000e+00
    outer loop
      vertex   1.993230e-01  9.807853e-01  2.006180e+00
      vertex   4.232645e-03  1.000000e+00  2.006180e+00
      vertex   4.232669e-03  8.000001e-01  2.006180e+00
    endloop
  endfacet
  facet normal -0.000000e+00  0.000000e+00  1.000000e+00
    outer loop
      vertex   4.232669e-03  8.000001e-01  2.006180e+00
      vertex   1.603049e-01  7.846283e-01  2.006180e+00
      vertex   1.993230e-01  9.807853e-01  2.006180e+00
    endloop
  endfacet
  facet normal  8.819214e-01  4.713965e-01 -0.000000e+00
    outer loop
      vertex   8.357023e-01  5.555702e-01  6.180406e-03
      vertex   8.357023e-01  5.555702e-01  2.006180e+00
      vertex   9.281121e-01  3.826835e-01  2.006180e+00
    endloop
  endfacet
  facet normal  8.819214e-01  4.713965e-01  0.000000e+00
    outer loop
      vertex   9.281121e-01  3.826835e-01  2.006180e+00
      vertex   9.281121e-01  3.826835e-01  6.180406e-03
      vertex   8.357023e-01  5.555702e-01  6.180406e-03
    endloop
  endfacet
  facet normal  0.000000e+00  0.000000e+00 -1.000000e+00
    outer loop
      vertex   4.232645e-03  7.364176e-08  6.180406e-03
      vertex   9.281121e-01  3.826835e-01  6.180406e-03
      vertex   9.850179e-01  1.950904e-01  6.180406e-03
    endloop
  endfacet
  facet normal  0.000000e+00  0.000000e+00  1.000000e+00
    outer loop
      vertex  -9.765524e-01  1.950914e-01  2.006180e+00
      vertex  -9.957674e-01  1.039241e-06  2.006180e+00
      vertex  -7.957674e-01  9.031180e-07  2.006180e+00
    endloop
  endfacet
  facet normal  0.000000e+00 -0.000000e+00  1.000000e+00
    outer loop
      vertex  -7.957674e-01  9.031180e-07  2.006180e+00
      vertex  -7.803954e-01  1.560732e-01  2.006180e+00
      vertex  -9.765524e-01  1.950914e-01  2.006180e+00
    endloop
  endfacet
  facet normal  9.569404e-01  2.902848e-01 -0.000000e+00
    outer loop
      vertex   9.281121e-01  3.826835e-01  6.180406e-03
      vertex   9.281121e-01  3.826835e-01  2.006180e+00
      vertex   9.850179e-01  1.950904e-01  2.006180e+00
    endloop
  endfacet
  facet normal  9.569404e-01  2.902848e-01  0.000000e+00
    outer loop
      vertex   9.850179e-01  1.950904e-01  2.006180e+00
      vertex   9.850179e-01  1.950904e-01  6.180406e-03
      vertex   9.281121e-01  3.826835e-01  6.180406e-03
    endloop
  endfacet
  facet normal  0.000000e+00  0.000000e+00 -1.000000e+00
    outer loop
      vertex   4.232645e-03  7.364176e-08  6.180406e-03
      vertex   9.850179e-01  1.950904e-01  6.180406e-03
      vertex   1.004233e+00  1.491397e-07  6.180406e-03
    endloop
  endfacet
  facet normal  0.000000e+00  0.000000e+00  1.000000e+00
    outer loop
      vertex   4.232645e-03  1.000000e+00  2.006180e+00
      vertex  -1.908562e-01  9.807856e-01  2.006180e+00
      vertex  -1.518384e-01  7.846286e-01  2.006180e+00
    endloop
  endfacet
  facet normal  0.000000e+00  0.000000e+00  1.000000e+00
    outer loop
      vertex  -1.518384e-01  7.846286e-01  2.006180e+00
      vertex   4.232669e-03  8.000001e-01  2.006180e+00
      vertex   4.232645e-03  1.000000e+00  2.006180e+00
    endloop
  endfacet
  facet normal  9.951847e-01  9.801731e-02 -0.000000e+00
    outer loop
      vertex   9.850179e-01  1.950904e-01  6.180406e-03
      vertex   9.850179e-01  1.950904e-01  2.006180e+00
      vertex   1.004233e+00  1.491397e-07  2.006180e+00
    endloop
  endfacet
  facet normal  9.951847e-01  9.801731e-02  0.000000e+00
    outer loop
      vertex   1.004233e+00  1.491397e-07  2.006180e+00
      vertex   1.004233e+00  1.491397e-07  6.180406e-03
      vertex   9.850179e-01  1.950904e-01  6.180406e-03
    endloop
  endfacet
  facet normal  0.000000e+00  0.000000e+00 -1.000000e+00
    outer loop
      vertex   4.232645e-03  7.364176e-08  6.180406e-03
      vertex   1.004233e+00  1.491397e-07  6.180406e-03
      vertex   9.850180e-01 -1.950901e-01  6.180406e-03
    endloop
  endfacet
  facet normal  0.000000e+00 -0.000000e+00  1.000000e+00
    outer loop
      vertex   9.281122e-01 -3.826832e-01  2.006180e+00
      vertex   9.850180e-01 -1.950901e-01  2.006180e+00
      vertex   7.888609e-01 -1.560720e-01  2.006180e+00
    endloop
  endfacet
  facet normal  0.000000e+00  0.000000e+00  1.000000e+00
    outer loop
      vertex   7.888609e-01 -1.560720e-01  2.006180e+00
      vertex   7.433363e-01 -3.061465e-01  2.006180e+00
      vertex   9.281122e-01 -3.826832e-01  2.006180e+00
    endloop
  endfacet
  facet normal  9.951847e-01 -9.801701e-02  0.000000e+00
    outer loop
      vertex   1.004233e+00  1.491397e-07  6.180406e-03
      vertex   1.004233e+00  1.491397e-07  2.006180e+00
      vertex   9.850180e-01 -1.950901e-01  2.006180e+00
    endloop
  endfacet
  facet normal  9.951847e-01 -9.801701e-02  0.000000e+00
    outer loop
      vertex   9.850180e-01 -1.950901e-01  2.006180e+00
      vertex   9.850180e-01 -1.950901e-01  6.180406e-03
      vertex   1.004233e+00  1.491397e-07  6.180406e-03
    endloop
  endfacet
  facet normal  0.000000e+00  0.000000e+00 -1.000000e+00
    outer loop
      vertex   4.232645e-03  7.364176e-08  6.180406e-03
      vertex   9.850180e-01 -1.950901e-01  6.180406e-03
      vertex   9.281122e-01 -3.826832e-01  6.180406e-03
    endloop
  endfacet
  facet normal  0.000000e+00  0.000000e+00  1.000000e+00
    outer loop
      vertex  -8.272374e-01 -5.555696e-01  2.006180e+00
      vertex  -7.028746e-01 -7.071063e-01  2.006180e+00
      vertex  -5.614532e-01 -5.656850e-01  2.006180e+00
    endloop
  endfacet
  facet normal  0.000000e+00  0.000000e+00  1.000000e+00
    outer loop
      vertex  -5.614532e-01 -5.656850e-01  2.006180e+00
      vertex  -6.609433e-01 -4.444556e-01  2.006180e+00
      vertex  -8.272374e-01 -5.555696e-01  2.006180e+00
    endloop
  endfacet
  facet normal  9.569404e-01 -2.902847e-01  0.000000e+00
    outer loop
      vertex   9.850180e-01 -1.950901e-01  6.180406e-03
      vertex   9.850180e-01 -1.950901e-01  2.006180e+00
      vertex   9.281122e-01 -3.826832e-01  2.006180e+00
    endloop
  endfacet
  facet normal  9.569404e-01 -2.902847e-01  0.000000e+00
    outer loop
      vertex   9.281122e-01 -3.826832e-01  2.006180e+00
      vertex   9.281122e-01 -3.826832e-01  6.180406e-03
      vertex   9.850180e-01 -1.950901e-01  6.180406e-03
    endloop
  endfacet
  facet normal  0.000000e+00  0.000000e+00 -1.000000e+00
    outer loop
      vertex   4.232645e-03  7.364176e-08  6.180406e-03
      vertex   9.281122e-01 -3.826832e-01  6.180406e-03
      vertex   8.357023e-01 -5.555701e-01  6.180406e-03
    endloop
  endfacet
  facet normal  0.000000e+00  0.000000e+00  1.000000e+00
    outer loop
      vertex   9.281121e-01  3.826835e-01  2.006180e+00
      vertex   8.357023e-01  5.555702e-01  2.006180e+00
      vertex   6.694084e-01  4.444563e-01  2.006180e+00
    endloop
  endfacet
  facet normal  0.000000e+00  0.000000e+00  1.000000e+00
    outer loop
      vertex   6.694084e-01  4.444563e-01  2.006180e+00
      vertex   7.433363e-01  3.061469e-01  2.006180e+00
      vertex   9.281121e-01  3.826835e-01  2.006180e+00
    endloop
  endfacet
  facet normal  8.819214e-01 -4.713964e-01  0.000000e+00
    outer loop
      vertex   9.281122e-01 -3.826832e-01  6.180406e-03
      vertex   9.281122e-01 -3.826832e-01  2.006180e+00
      vertex   8.357023e-01 -5.555701e-01  2.006180e+00
    endloop
  endfacet
  facet normal  8.819214e-01 -4.713964e-01  0.000000e+00
    outer loop
      vertex   8.357023e-01 -5.555701e-01  2.006180e+00
      vertex   8.357023e-01 -5.555701e-01  6.180406e-03
      vertex   9.281122e-01 -3.826832e-01  6.180406e-03
    endloop
  endfacet
  facet normal  0.000000e+00  0.000000e+00 -1.000000e+00
    outer loop
      vertex   4.232645e-03  7.364176e-08  6.180406e-03
      vertex   8.357023e-01 -5.555701e-01  6.180406e-03
      vertex   7.113394e-01 -7.071067e-01  6.180406e-03
    endloop
  endfacet
  facet normal -0.000000e+00  0.000000e+00  1.000000e+00
    outer loop
      vertex  -1.908581e-01 -9.807851e-01  2.006180e+00
      vertex   4.232319e-03 -9.999999e-01  2.006180e+00
      vertex   4.232408e-03 -7.999998e-01  2.006180e+00
    endloop
  endfacet
  facet normal  0.000000e+00  0.000000e+00  1.000000e+00
    outer loop
      vertex   4.232408e-03 -7.999998e-01  2.006180e+00
      vertex  -1.518399e-01 -7.846280e-01  2.006180e+00
      vertex  -1.908581e-01 -9.807851e-01  2.006180e+00
    endloop
  endfacet
  facet normal  7.730104e-01 -6.343934e-01  0.000000e+00
    outer loop
      vertex   8.357023e-01 -5.555701e-01  6.180406e-03
      vertex   8.357023e-01 -5.555701e-01  2.006180e+00
      vertex   7.113394e-01 -7.071067e-01  2.006180e+00
    endloop
  endfacet
  facet normal  7.730104e-01 -6.343934e-01  0.000000e+00
    outer loop
      vertex   7.113394e-01 -7.071067e-01  2.006180e+00
      vertex   7.113394e-01 -7.071067e-01  6.180406e-03
      vertex   8.357023e-01 -5.555701e-01  6.180406e-03
    endloop
  endfacet
  facet normal  0.000000e+00  0.000000e+00 -1.000000e+00
    outer loop
      vertex   4.232645e-03  7.364176e-08  6.180406e-03
      vertex   7.113394e-01 -7.071067e-01  6.180406e-03
      vertex   5.598028e-01 -8.314696e-01  6.180406e-03
    endloop
  endfacet
  facet normal  0.000000e+00  0.000000e+00  1.000000e+00
    outer loop
      vertex  -7.028732e-01  7.071077e-01  2.006180e+00
      vertex  -8.272363e-01  5.555713e-01  2.006180e+00
      vertex  -6.609425e-01  4.444571e-01  2.006180e+00
    endloop
  endfacet
  facet normal  0.000000e+00 -0.000000e+00  1.000000e+00
    outer loop
      vertex  -6.609425e-01  4.444571e-01  2.006180e+00
      vertex  -5.614520e-01  5.656863e-01  2.006180e+00
      vertex  -7.028732e-01  7.071077e-01  2.006180e+00
    endloop
  endfacet
  facet normal  6.343934e-01 -7.730104e-01  0.000000e+00
    outer loop
      vertex   7.113394e-01 -7.071067e-01  6.180406e-03
      vertex   7.113394e-01 -7.071067e-01  2.006180e+00
      vertex   5.598028e-01 -8.314696e-01  2.006180e+00
    endloop
  endfacet
  facet normal  6.343934e-01 -7.730104e-01  0.000000e+00
    outer loop
      vertex   5.598028e-01 -8.314696e-01  2.006180e+00
      vertex   5.598028e-01 -8.314696e-01  6.180406e-03
      vertex   7.113394e-01 -7.071067e-01  6.180406e-03
    endloop
  endfacet
  facet normal  0.000000e+00  0.000000e+00 -1.000000e+00
    outer loop
      vertex   4.232645e-03  7.364176e-08  6.180406e-03
      vertex   5.598028e-01 -8.314696e-01  6.180406e-03
      vertex   3.869159e-01 -9.238796e-01  6.180406e-03
    endloop
  endfacet
  facet normal  0.000000e+00  0.000000e+00  1.000000e+00
    outer loop
      vertex   5.598028e-01 -8.314696e-01  2.006180e+00
      vertex   7.113394e-01 -7.071067e-01  2.006180e+00
      vertex   5.699181e-01 -5.656853e-01  2.006180e+00
    endloop
  endfacet
  facet normal  0.000000e+00  0.000000e+00  1.000000e+00
    outer loop
      vertex   5.699181e-01 -5.656853e-01  2.006180e+00
      vertex   4.486888e-01 -6.651756e-01  2.006180e+00
      vertex   5.598028e-01 -8.314696e-01  2.006180e+00
    endloop
  endfacet
  facet normal  4.713967e-01 -8.819212e-01  0.000000e+00
    outer loop
      vertex   5.598028e-01 -8.314696e-01  6.180406e-03
      vertex   5.598028e-01 -8.314696e-01  2.006180e+00
      vertex   3.869159e-01 -9.238796e-01  2.006180e+00
    endloop
  endfacet
  facet normal  4.713967e-01 -8.819212e-01  0.000000e+00
    outer loop
      vertex   3.869159e-01 -9.238796e-01  2.006180e+00
      vertex   3.869159e-01 -9.238796e-01  6.180406e-03
      vertex   5.598028e-01 -8.314696e-01  6.180406e-03
    endloop
  endfacet
  facet normal  0.000000e+00  0.000000e+00 -1.000000e+00
    outer loop
      vertex   4.232645e-03  7.364176e-08  6.180406e-03
      vertex   3.869159e-01 -9.238796e-01  6.180406e-03
      vertex   1.993227e-01 -9.807853e-01  6.180406e-03
    endloop
  endfacet
  facet normal  0.000000e+00  0.000000e+00  1.000000e+00
    outer loop
      vertex   3.869161e-01  9.238796e-01  2.006180e+00
      vertex   1.993230e-01  9.807853e-01  2.006180e+00
      vertex   1.603049e-01  7.846283e-01  2.006180e+00
    endloop
  endfacet
  facet normal -0.000000e+00  0.000000e+00  1.000000e+00
    outer loop
      vertex   1.603049e-01  7.846283e-01  2.006180e+00
      vertex   3.103794e-01  7.391037e-01  2.006180e+00
      vertex   3.869161e-01  9.238796e-01  2.006180e+00
    endloop
  endfacet
  facet normal  2.902843e-01 -9.569405e-01  0.000000e+00
    outer loop
      vertex   3.869159e-01 -9.238796e-01  6.180406e-03
      vertex   3.869159e-01 -9.238796e-01  2.006180e+00
      vertex   1.993227e-01 -9.807853e-01  2.006180e+00
    endloop
  endfacet
  facet normal  2.902843e-01 -9.569405e-01  0.000000e+00
    outer loop
      vertex   1.993227e-01 -9.807853e-01  2.006180e+00
      vertex   1.993227e-01 -9.807853e-01  6.180406e-03
      vertex   3.869159e-01 -9.238796e-01  6.180406e-03
    endloop
  endfacet
  facet normal  0.000000e+00 -0.000000e+00 -1.000000e+00
    outer loop
      vertex   4.232645e-03  7.364176e-08  6.180406e-03
      vertex   1.993227e-01 -9.807853e-01  6.180406e-03
      vertex   4.232319e-03 -9.999999e-01  6.180406e-03
    endloop
  endfacet
  facet normal  0.000000e+00  0.000000e+00  1.000000e+00
    outer loop
      vertex  -9.957674e-01  1.039241e-06  2.006180e+00
      vertex  -9.765528e-01 -1.950894e-01  2.006180e+00
      vertex  -7.803957e-01 -1.560714e-01  2.006180e+00
    endloop
  endfacet
  facet normal  0.000000e+00  0.000000e+00  1.000000e+00
    outer loop
      vertex  -7.803957e-01 -1.560714e-01  2.006180e+00
      vertex  -7.957674e-01  9.031180e-07  2.006180e+00
      vertex  -9.957674e-01  1.039241e-06  2.006180e+00
    endloop
  endfacet
  facet normal  9.801694e-02 -9.951847e-01  0.000000e+00
    outer loop
      vertex   1.993227e-01 -9.807853e-01  6.180406e-03
      vertex   1.993227e-01 -9.807853e-01  2.006180e+00
      vertex   4.232319e-03 -9.999999e-01  2.006180e+00
    endloop
  endfacet
  facet normal  9.801694e-02 -9.951847e-01  0.000000e+00
    outer loop
      vertex   4.232319e-03 -9.999999e-01  2.006180e+00
      vertex   4.232319e-03 -9.999999e-01  6.180406e-03
      vertex   1.993227e-01 -9.807853e-01  6.180406e-03
    endloop
  endfacet
  facet normal  0.000000e+00  0.000000e+00 -1.000000e+00
    outer loop
      vertex   4.232645e-03  7.364176e-08  6.180406e-03
      vertex   4.232319e-03 -9.999999e-01  6.180406e-03
      vertex  -1.908581e-01 -9.807851e-01  6.180406e-03
    endloop
  endfacet
  facet normal  0.000000e+00 -0.000000e+00  1.000000e+00
    outer loop
      vertex   9.850180e-01 -1.950901e-01  2.006180e+00
      vertex   1.004233e+00  1.491397e-07  2.006180e+00
      vertex   8.042327e-01  1.910370e-07  2.006180e+00
    endloop
  endfacet
  facet normal  0.000000e+00  0.000000e+00  1.000000e+00
    outer loop
      vertex   8.042327e-01  1.910370e-07  2.006180e+00
      vertex   7.888609e-01 -1.560720e-01  2.006180e+00
      vertex   9.850180e-01 -1.950901e-01  2.006180e+00
    endloop
  endfacet
  facet normal -9.801755e-02 -9.951847e-01  0.000000e+00
    outer loop
      vertex   4.232319e-03 -9.999999e-01  6.180406e-03
      vertex   4.232319e-03 -9.999999e-01  2.006180e+00
      vertex  -1.908581e-01 -9.807851e-01  2.006180e+00
    endloop
  endfacet
  facet normal -9.801755e-02 -9.951847e-01 -0.000000e+00
    outer loop
      vertex  -1.908581e-01 -9.807851e-01  2.006180e+00
      vertex  -1.908581e-01 -9.807851e-01  6.180406e-03
      vertex   4.232319e-03 -9.999999e-01  6.180406e-03
    endloop
  endfacet
  facet normal  0.000000e+00  0.000000e+00 -1.000000e+00
    outer loop
      vertex   4.232645e-03  7.364176e-08  6.180406e-03
      vertex  -1.908581e-01 -9.807851e-01  6.180406e-03
      vertex  -3.784512e-01 -9.238793e-01  6.180406e-03
    endloop
  endfacet
  facet normal -0.000000e+00  0.000000e+00  1.000000e+00
    outer loop
      vertex  -7.028746e-01 -7.071063e-01  2.006180e+00
      vertex  -5.513381e-01 -8.314692e-01  2.006180e+00
      vertex  -4.402239e-01 -6.651753e-01  2.006180e+00
    endloop
  endfacet
  facet normal  0.000000e+00  0.000000e+00  1.000000e+00
    outer loop
      vertex  -4.402239e-01 -6.651753e-01  2.006180e+00
      vertex  -5.614532e-01 -5.656850e-01  2.006180e+00
      vertex  -7.028746e-01 -7.071063e-01  2.006180e+00
    endloop
  endfacet
  facet normal -2.902852e-01 -9.569402e-01  0.000000e+00
    outer loop
      vertex  -1.908581e-01 -9.807851e-01  6.180406e-03
      vertex  -1.908581e-01 -9.807851e-01  2.006180e+00
      vertex  -3.784512e-01 -9.238793e-01  2.006180e+00
    endloop
  endfacet
  facet normal -2.902852e-01 -9.569402e-01 -0.000000e+00
    outer loop
      vertex  -3.784512e-01 -9.238793e-01  2.006180e+00
      vertex  -3.784512e-01 -9.238793e-01  6.180406e-03
      vertex  -1.908581e-01 -9.807851e-01  6.180406e-03
    endloop
  endfacet
  facet normal  0.000000e+00  0.000000e+00 -1.000000e+00
    outer loop
      vertex   4.232645e-03  7.364176e-08  6.180406e-03
      vertex  -3.784512e-01 -9.238793e-01  6.180406e-03
      vertex  -5.513381e-01 -8.314692e-01  6.180406e-03
    endloop
  endfacet
  facet normal  0.000000e+00  0.000000e+00  1.000000e+00
    outer loop
      vertex  -1.908562e-01  9.807856e-01  2.006180e+00
      vertex  -3.784494e-01  9.238802e-01  2.006180e+00
      vertex  -3.019130e-01  7.391042e-01  2.006180e+00
    endloop
  endfacet
  facet normal  0.000000e+00  0.000000e+00  1.000000e+00
    outer loop
      vertex  -3.019130e-01  7.391042e-01  2.006180e+00
      vertex  -1.518384e-01  7.846286e-01  2.006180e+00
      vertex  -1.908562e-01  9.807856e-01  2.006180e+00
    endloop
  endfacet
  facet normal -4.713971e-01 -8.819211e-01  0.000000e+00
    outer loop
      vertex  -3.784512e-01 -9.238793e-01  6.180406e-03
      vertex  -3.784512e-01 -9.238793e-01  2.006180e+00
      vertex  -5.513381e-01 -8.314692e-01  2.006180e+00
    endloop
  endfacet
  facet normal -4.713971e-01 -8.819211e-01 -0.000000e+00
    outer loop
      vertex  -5.513381e-01 -8.314692e-01  2.006180e+00
      vertex  -5.513381e-01 -8.314692e-01  6.180406e-03
      vertex  -3.784512e-01 -9.238793e-01  6.180406e-03
    endloop
  endfacet
  facet normal  0.000000e+00  0.000000e+00 -1.000000e+00
    outer loop
      vertex   4.232645e-03  7.364176e-08  6.180406e-03
      vertex  -5.513381e-01 -8.314692e-01  6.180406e-03
      vertex  -7.028746e-01 -7.071063e-01  6.180406e-03
    endloop
  endfacet
  facet normal  0.000000e+00  0.000000e+00  1.000000e+00
    outer loop
      vertex   4.232319e-03 -9.999999e-01  2.006180e+00
      vertex   1.993227e-01 -9.807853e-01  2.006180e+00
      vertex   1.603047e-01 -7.846282e-01  2.006180e+00
    endloop
  endfacet
  facet normal  0.000000e+00  0.000000e+00  1.000000e+00
    outer loop
      vertex   1.603047e-01 -7.846282e-01  2.006180e+00
      vertex   4.232408e-03 -7.999998e-01  2.006180e+00
      vertex   4.232319e-03 -9.999999e-01  2.006180e+00
    endloop
  endfacet
  facet normal -6.343938e-01 -7.730101e-01  0.000000e+00
    outer loop
      vertex  -5.513381e-01 -8.314692e-01  6.180406e-03
      vertex  -5.513381e-01 -8.314692e-01  2.006180e+00
      vertex  -7.028746e-01 -7.071063e-01  2.006180e+00
    endloop
  endfacet
  facet normal -6.343938e-01 -7.730101e-01 -0.000000e+00
    outer loop
      vertex  -7.028746e-01 -7.071063e-01  2.006180e+00
      vertex  -7.028746e-01 -7.071063e-01  6.180406e-03
      vertex  -5.513381e-01 -8.314692e-01  6.180406e-03
    endloop
  endfacet
  facet normal  0.000000e+00  0.000000e+00 -1.000000e+00
    outer loop
      vertex   4.232645e-03  7.364176e-08  6.180406e-03
      vertex  -7.028746e-01 -7.071063e-01  6.180406e-03
      vertex  -8.272374e-01 -5.555696e-01  6.180406e-03
    endloop
  endfacet
  facet normal  0.000000e+00  0.000000e+00  1.000000e+00
    outer loop
      vertex   8.357023e-01  5.555702e-01  2.006180e+00
      vertex   7.113394e-01  7.071068e-01  2.006180e+00
      vertex   5.699181e-01  5.656856e-01  2.006180e+00
    endloop
  endfacet
  facet normal  0.000000e+00  0.000000e+00  1.000000e+00
    outer loop
      vertex   5.699181e-01  5.656856e-01  2.006180e+00
      vertex   6.694084e-01  4.444563e-01  2.006180e+00
      vertex   8.357023e-01  5.555702e-01  2.006180e+00
    endloop
  endfacet
  facet normal -7.730109e-01 -6.343927e-01  0.000000e+00
    outer loop
      vertex  -7.028746e-01 -7.071063e-01  6.180406e-03
      vertex  -7.028746e-01 -7.071063e-01  2.006180e+00
      vertex  -8.272374e-01 -5.555696e-01  2.006180e+00
    endloop
  endfacet
  facet normal -7.730109e-01 -6.343927e-01 -0.000000e+00
    outer loop
      vertex  -8.272374e-01 -5.555696e-01  2.006180e+00
      vertex  -8.272374e-01 -5.555696e-01  6.180406e-03
      vertex  -7.028746e-01 -7.071063e-01  6.180406e-03
    endloop
  endfacet
  facet normal  0.000000e+00  0.000000e+00 -1.000000e+00
    outer loop
      vertex   4.232645e-03  7.364176e-08  6.180406e-03
      vertex  -8.272374e-01 -5.555696e-01  6.180406e-03
      vertex  -9.196472e-01 -3.826826e-01  6.180406e-03
    endloop
  endfacet
  facet normal  0.000000e+00  0.000000e+00  1.000000e+00
    outer loop
      vertex  -8.272363e-01  5.555713e-01  2.006180e+00
      vertex  -9.196464e-01  3.826845e-01  2.006180e+00
      vertex  -7.348706e-01  3.061477e-01  2.006180e+00
    endloop
  endfacet
  facet normal  0.000000e+00 -0.000000e+00  1.000000e+00
    outer loop
      vertex  -7.348706e-01  3.061477e-01  2.006180e+00
      vertex  -6.609425e-01  4.444571e-01  2.006180e+00
      vertex  -8.272363e-01  5.555713e-01  2.006180e+00
    endloop
  endfacet
  facet normal -8.819216e-01 -4.713961e-01  0.000000e+00
    outer loop
      vertex  -8.272374e-01 -5.555696e-01  6.180406e-03
      vertex  -8.272374e-01 -5.555696e-01  2.006180e+00
      vertex  -9.196472e-01 -3.826826e-01  2.006180e+00
    endloop
  endfacet
  facet normal -8.819216e-01 -4.713961e-01 -0.000000e+00
    outer loop
      vertex  -9.196472e-01 -3.826826e-01  2.006180e+00
      vertex  -9.196472e-01 -3.826826e-01  6.180406e-03
      vertex  -8.272374e-01 -5.555696e-01  6.180406e-03
    endloop
  endfacet
  facet normal  0.000000e+00  0.000000e+00 -1.000000e+00
    outer loop
      vertex   4.232645e-03  7.364176e-08  6.180406e-03
      vertex  -9.196472e-01 -3.826826e-01  6.180406e-03
      vertex  -9.765528e-01 -1.950894e-01  6.180406e-03
    endloop
  endfacet
  facet normal  0.000000e+00 -0.000000e+00  1.000000e+00
    outer loop
      vertex   7.113394e-01 -7.071067e-01  2.006180e+00
      vertex   8.357023e-01 -5.555701e-01  2.006180e+00
      vertex   6.694084e-01 -4.444560e-01  2.006180e+00
    endloop
  endfacet
  facet normal  0.000000e+00  0.000000e+00  1.000000e+00
    outer loop
      vertex   6.694084e-01 -4.444560e-01  2.006180e+00
      vertex   5.699181e-01 -5.656853e-01  2.006180e+00
      vertex   7.113394e-01 -7.071067e-01  2.006180e+00
    endloop
  endfacet
  facet normal -9.569407e-01 -2.902837e-01  0.000000e+00
    outer loop
      vertex  -9.196472e-01 -3.826826e-01  6.180406e-03
      vertex  -9.196472e-01 -3.826826e-01  2.006180e+00
      vertex  -9.765528e-01 -1.950894e-01  2.006180e+00
    endloop
  endfacet
  facet normal -9.569407e-01 -2.902837e-01 -0.000000e+00
    outer loop
      vertex  -9.765528e-01 -1.950894e-01  2.006180e+00
      vertex  -9.765528e-01 -1.950894e-01  6.180406e-03
      vertex  -9.196472e-01 -3.826826e-01  6.180406e-03
    endloop
  endfacet
  facet normal -0.000000e+00  0.000000e+00 -1.000000e+00
    outer loop
      vertex   4.232645e-03  7.364176e-08  6.180406e-03
      vertex  -9.765528e-01 -1.950894e-01  6.180406e-03
      vertex  -9.957674e-01  1.039241e-06  6.180406e-03
    endloop
  endfacet
  facet normal  0.000000e+00  0.000000e+00  1.000000e+00
    outer loop
      vertex  -9.765528e-01 -1.950894e-01  2.006180e+00
      vertex  -9.196472e-01 -3.826826e-01  2.006180e+00
      vertex  -7.348712e-01 -3.061460e-01  2.006180e+00
    endloop
  endfacet
  facet normal  0.000000e+00  0.000000e+00  1.000000e+00
    outer loop
      vertex  -7.348712e-01 -3.061460e-01  2.006180e+00
      vertex  -7.803957e-01 -1.560714e-01  2.006180e+00
      vertex  -9.765528e-01 -1.950894e-01  2.006180e+00
    endloop
  endfacet
  facet normal -9.951848e-01 -9.801633e-02  0.000000e+00
    outer loop
      vertex  -9.765528e-01 -1.950894e-01  6.180406e-03
      vertex  -9.765528e-01 -1.950894e-01  2.006180e+00
      vertex  -9.957674e-01  1.039241e-06  2.006180e+00
    endloop
  endfacet
  facet normal -9.951848e-01 -9.801633e-02 -0.000000e+00
    outer loop
      vertex  -9.957674e-01  1.039241e-06  2.006180e+00
      vertex  -9.957674e-01  1.039241e-06  6.180406e-03
      vertex  -9.765528e-01 -1.950894e-01  6.180406e-03
    endloop
  endfacet
  facet normal  0.000000e+00  0.000000e+00 -1.000000e+00
    outer loop
      vertex   4.232645e-03  7.364176e-08  6.180406e-03
      vertex  -9.957674e-01  1.039241e-06  6.180406e-03
      vertex  -9.765524e-01  1.950914e-01  6.180406e-03
    endloop
  endfacet
  facet normal  0.000000e+00  0.000000e+00  1.000000e+00
    outer loop
      vertex   1.004233e+00  1.491397e-07  2.006180e+00
      vertex   9.850179e-01  1.950904e-01  2.006180e+00
      vertex   7.888609e-01  1.560724e-01  2.006180e+00
    endloop
  endfacet
  facet normal  0.000000e+00  0.000000e+00  1.000000e+00
    outer loop
      vertex   7.888609e-01  1.560724e-01  2.006180e+00
      vertex   8.042327e-01  1.910370e-07  2.006180e+00
      vertex   1.004233e+00  1.491397e-07  2.006180e+00
    endloop
  endfacet
  facet normal -9.951847e-01  9.801816e-02  0.000000e+00
    outer loop
      vertex  -9.957674e-01  1.039241e-06  6.180406e-03
      vertex  -9.957674e-01  1.039241e-06  2.006180e+00
      vertex  -9.765524e-01  1.950914e-01  2.006180e+00
    endloop
  endfacet
  facet normal -9.951847e-01  9.801816e-02  0.000000e+00
    outer loop
      vertex  -9.765524e-01  1.950914e-01  2.006180e+00
      vertex  -9.765524e-01  1.950914e-01  6.180406e-03
      vertex  -9.957674e-01  1.039241e-06  6.180406e-03
    endloop
  endfacet
  facet normal  0.000000e+00  0.000000e+00 -1.000000e+00
    outer loop
      vertex   4.232645e-03  7.364176e-08  6.180406e-03
      vertex  -9.765524e-01  1.950914e-01  6.180406e-03
      vertex  -9.196464e-01  3.826845e-01  6.180406e-03
    endloop
  endfacet
  facet normal -0.000000e+00  0.000000e+00  1.000000e+00
    outer loop
      vertex  -5.513381e-01 -8.314692e-01  2.006180e+00
      vertex  -3.784512e-01 -9.238793e-01  2.006180e+00
      vertex  -3.019144e-01 -7.391034e-01  2.006180e+00
    endloop
  endfacet
  facet normal  0.000000e+00  0.000000e+00  1.000000e+00
    outer loop
      vertex  -3.019144e-01 -7.391034e-01  2.006180e+00
      vertex  -4.402239e-01 -6.651753e-01  2.006180e+00
      vertex  -5.513381e-01 -8.314692e-01  2.006180e+00
    endloop
  endfacet
  facet normal -9.569400e-01  2.902858e-01  0.000000e+00
    outer loop
      vertex  -9.765524e-01  1.950914e-01  6.180406e-03
      vertex  -9.765524e-01  1.950914e-01  2.006180e+00
      vertex  -9.196464e-01  3.826845e-01  2.006180e+00
    endloop
  endfacet
  facet normal -9.569400e-01  2.902858e-01  0.000000e+00
    outer loop
      vertex  -9.196464e-01  3.826845e-01  2.006180e+00
      vertex  -9.196464e-01  3.826845e-01  6.180406e-03
      vertex  -9.765524e-01  1.950914e-01  6.180406e-03
    endloop
  endfacet
  facet normal  0.000000e+00  0.000000e+00 -1.000000e+00
    outer loop
      vertex   4.232645e-03  7.364176e-08  6.180406e-03
      vertex  -9.196464e-01  3.826845e-01  6.180406e-03
      vertex  -8.272363e-01  5.555713e-01  6.180406e-03
    endloop
  endfacet
  facet normal  0.000000e+00  0.000000e+00  1.000000e+00
    outer loop
      vertex  -3.784494e-01  9.238802e-01  2.006180e+00
      vertex  -5.513365e-01  8.314704e-01  2.006180e+00
      vertex  -4.402226e-01  6.651765e-01  2.006180e+00
    endloop
  endfacet
  facet normal  0.000000e+00  0.000000e+00  1.000000e+00
    outer loop
      vertex  -4.402226e-01  6.651765e-01  2.006180e+00
      vertex  -3.019130e-01  7.391042e-01  2.006180e+00
      vertex  -3.784494e-01  9.238802e-01  2.006180e+00
    endloop
  endfacet
  facet normal -8.819208e-01  4.713977e-01  0.000000e+00
    outer loop
      vertex  -9.196464e-01  3.826845e-01  6.180406e-03
      vertex  -9.196464e-01  3.826845e-01  2.006180e+00
      vertex  -8.272363e-01  5.555713e-01  2.006180e+00
    endloop
  endfacet
  facet normal -8.819208e-01  4.713977e-01  0.000000e+00
    outer loop
      vertex  -8.272363e-01  5.555713e-01  2.006180e+00
      vertex  -8.272363e-01  5.555713e-01  6.180406e-03
      vertex  -9.196464e-01  3.826845e-01  6.180406e-03
    endloop
  endfacet
  facet normal  0.000000e+00  0.000000e+00 -1.000000e+00
    outer loop
      vertex   4.232645e-03  7.364176e-08  6.180406e-03
      vertex  -8.272363e-01  5.555713e-01  6.180406e-03
      vertex  -7.028732e-01  7.071077e-01  6.180406e-03
    endloop
  endfacet
  facet normal  0.000000e+00  0.000000e+00  1.000000e+00
    outer loop
      vertex   1.993227e-01 -9.807853e-01  2.006180e+00
      vertex   3.869159e-01 -9.238796e-01  2.006180e+00
      vertex   3.103793e-01 -7.391036e-01  2.006180e+00
    endloop
  endfacet
  facet normal  0.000000e+00  0.000000e+00  1.000000e+00
    outer loop
      vertex   3.103793e-01 -7.391036e-01  2.006180e+00
      vertex   1.603047e-01 -7.846282e-01  2.006180e+00
      vertex   1.993227e-01 -9.807853e-01  2.006180e+00
    endloop
  endfacet
  facet normal -7.730096e-01  6.343944e-01  0.000000e+00
    outer loop
      vertex  -8.272363e-01  5.555713e-01  6.180406e-03
      vertex  -8.272363e-01  5.555713e-01  2.006180e+00
      vertex  -7.028732e-01  7.071077e-01  2.006180e+00
    endloop
  endfacet
  facet normal -7.730096e-01  6.343944e-01  0.000000e+00
    outer loop
      vertex  -7.028732e-01  7.071077e-01  2.006180e+00
      vertex  -7.028732e-01  7.071077e-01  6.180406e-03
      vertex  -8.272363e-01  5.555713e-01  6.180406e-03
    endloop
  endfacet
  facet normal  0.000000e+00  0.000000e+00 -1.000000e+00
    outer loop
      vertex   4.232645e-03  7.364176e-08  6.180406e-03
      vertex  -7.028732e-01  7.071077e-01  6.180406e-03
      vertex  -5.513365e-01  8.314704e-01  6.180406e-03
    endloop
  endfacet
  facet normal  0.000000e+00  0.000000e+00  1.000000e+00
    outer loop
      vertex   7.113394e-01  7.071068e-01  2.006180e+00
      vertex   5.598029e-01  8.314697e-01  2.006180e+00
      vertex   4.486889e-01  6.651758e-01  2.006180e+00
    endloop
  endfacet
  facet normal -0.000000e+00  0.000000e+00  1.000000e+00
    outer loop
      vertex   4.486889e-01  6.651758e-01  2.006180e+00
      vertex   5.699181e-01  5.656856e-01  2.006180e+00
      vertex   7.113394e-01  7.071068e-01  2.006180e+00
    endloop
  endfacet
  facet normal -6.343924e-01  7.730111e-01  0.000000e+00
    outer loop
      vertex  -7.028732e-01  7.071077e-01  6.180406e-03
      vertex  -7.028732e-01  7.071077e-01  2.006180e+00
      vertex  -5.513365e-01  8.314704e-01  2.006180e+00
    endloop
  endfacet
  facet normal -6.343924e-01  7.730111e-01  0.000000e+00
    outer loop
      vertex  -5.513365e-01  8.314704e-01  2.006180e+00
      vertex  -5.513365e-01  8.314704e-01  6.180406e-03
      vertex  -7.028732e-01  7.071077e-01  6.180406e-03
    endloop
  endfacet
  facet normal  0.000000e+00  0.000000e+00 -1.000000e+00
    outer loop
      vertex   4.232645e-03  7.364176e-08  6.180406e-03
      vertex  -5.513365e-01  8.314704e-01  6.180406e-03
      vertex  -3.784494e-01  9.238802e-01  6.180406e-03
    endloop
  endfacet
  facet normal  0.000000e+00  0.000000e+00  1.000000e+00
    outer loop
      vertex  -9.196464e-01  3.826845e-01  2.006180e+00
      vertex  -9.765524e-01  1.950914e-01  2.006180e+00
      vertex  -7.803954e-01  1.560732e-01  2.006180e+00
    endloop
  endfacet
  facet normal  0.000000e+00 -0.000000e+00  1.000000e+00
    outer loop
      vertex  -7.803954e-01  1.560732e-01  2.006180e+00
      vertex  -7.348706e-01  3.061477e-01  2.006180e+00
      vertex  -9.196464e-01  3.826845e-01  2.006180e+00
    endloop
  endfacet
  facet normal -4.713955e-01  8.819219e-01  0.000000e+00
    outer loop
      vertex  -5.513365e-01  8.314704e-01  6.180406e-03
      vertex  -5.513365e-01  8.314704e-01  2.006180e+00
      vertex  -3.784494e-01  9.238802e-01  2.006180e+00
    endloop
  endfacet
  facet normal -4.713955e-01  8.819219e-01  0.000000e+00
    outer loop
      vertex  -3.784494e-01  9.238802e-01  2.006180e+00
      vertex  -3.784494e-01  9.238802e-01  6.180406e-03
      vertex  -5.513365e-01  8.314704e-01  6.180406e-03
    endloop
  endfacet
  facet normal  0.000000e+00  0.000000e+00 -1.000000e+00
    outer loop
      vertex   4.232645e-03  7.364176e-08  6.180406e-03
      vertex  -3.784494e-01  9.238802e-01  6.180406e-03
      vertex  -1.908562e-01  9.807856e-01  6.180406e-03
    endloop
  endfacet
  facet normal  0.000000e+00 -0.000000e+00  1.000000e+00
    outer loop
      vertex   8.357023e-01 -5.555701e-01  2.006180e+00
      vertex   9.281122e-01 -3.826832e-01  2.006180e+00
      vertex   7.433363e-01 -3.061465e-01  2.006180e+00
    endloop
  endfacet
  facet normal  0.000000e+00  0.000000e+00  1.000000e+00
    outer loop
      vertex   7.433363e-01 -3.061465e-01  2.006180e+00
      vertex   6.694084e-01 -4.444560e-01  2.006180e+00
      vertex   8.357023e-01 -5.555701e-01  2.006180e+00
    endloop
  endfacet
  facet normal -2.902831e-01  9.569408e-01  0.000000e+00
    outer loop
      vertex  -3.784494e-01  9.238802e-01  6.180406e-03
      vertex  -3.784494e-01  9.238802e-01  2.006180e+00
      vertex  -1.908562e-01  9.807856e-01  2.006180e+00
    endloop
  endfacet
  facet normal -2.902831e-01  9.569408e-01  0.000000e+00
    outer loop
      vertex  -1.908562e-01  9.807856e-01  2.006180e+00
      vertex  -1.908562e-01  9.807856e-01  6.180406e-03
      vertex  -3.784494e-01  9.238802e-01  6.180406e-03
    endloop
  endfacet
  facet normal  0.000000e+00  0.000000e+00 -1.000000e+00
    outer loop
      vertex   4.232645e-03  7.364176e-08  6.180406e-03
      vertex  -1.908562e-01  9.807856e-01  6.180406e-03
      vertex   4.232645e-03  1.000000e+00  6.180406e-03
    endloop
  endfacet
  facet normal  0.000000e+00  0.000000e+00  1.000000e+00
    outer loop
      vertex  -9.196472e-01 -3.826826e-01  2.006180e+00
      vertex  -8.272374e-01 -5.555696e-01  2.006180e+00
      vertex  -6.609433e-01 -4.444556e-01  2.006180e+00
    endloop
  endfacet
  facet normal  0.000000e+00  0.000000e+00  1.000000e+00
    outer loop
      vertex  -6.609433e-01 -4.444556e-01  2.006180e+00
      vertex  -7.348712e-01 -3.061460e-01  2.006180e+00
      vertex  -9.196472e-01 -3.826826e-01  2.006180e+00
    endloop
  endfacet
  facet normal -9.801684e-02  9.951848e-01  0.000000e+00
    outer loop
      vertex  -1.908562e-01  9.807856e-01  6.180406e-03
      vertex  -1.908562e-01  9.807856e-01  2.006180e+00
      vertex   4.232645e-03  1.000000e+00  2.006180e+00
    endloop
  endfacet
  facet normal -9.801684e-02  9.951848e-01  0.000000e+00
    outer loop
      vertex   4.232645e-03  1.000000e+00  2.006180e+00
      vertex   4.232645e-03  1.000000e+00  6.180406e-03
      vertex  -1.908562e-01  9.807856e-01  6.180406e-03
    endloop
  endfacet
  facet normal -9.801729e-02 -9.951847e-01  0.000000e+00
    outer loop
      vertex   1.603049e-01  7.846283e-01  2.006180e+00
      vertex   4.232669e-03  8.000001e-01  2.006180e+00
      vertex   4.232669e-03  8.000001e-01  1.880724e-01
    endloop
  endfacet
  facet normal -9.801729e-02 -9.951847e-01  0.000000e+00
    outer loop
      vertex   4.232669e-03  8.000001e-01  1.880724e-01
      vertex   1.603049e-01  7.846283e-01  1.880724e-01
      vertex   1.603049e-01  7.846283e-01  2.006180e+00
    endloop
  endfacet
  facet normal -7.730106e-01  6.343932e-01  0.000000e+00
    outer loop
      vertex   5.699181e-01 -5.656853e-01  2.006180e+00
      vertex   6.694084e-01 -4.444560e-01  2.006180e+00
      vertex   6.694084e-01 -4.444560e-01  1.880724e-01
    endloop
  endfacet
  facet normal -7.730106e-01  6.343932e-01  0.000000e+00
    outer loop
      vertex   6.694084e-01 -4.444560e-01  1.880724e-01
      vertex   5.699181e-01 -5.656853e-01  1.880724e-01
      vertex   5.699181e-01 -5.656853e-01  2.006180e+00
    endloop
  endfacet
  facet normal  9.569407e-01  2.902838e-01  0.000000e+00
    outer loop
      vertex  -7.803957e-01 -1.560714e-01  2.006180e+00
      vertex  -7.348712e-01 -3.061460e-01  2.006180e+00
      vertex  -7.348712e-01 -3.061460e-01  1.880724e-01
    endloop
  endfacet
  facet normal  9.569407e-01  2.902838e-01  0.000000e+00
    outer loop
      vertex  -7.348712e-01 -3.061460e-01  1.880724e-01
      vertex  -7.803957e-01 -1.560714e-01  1.880724e-01
      vertex  -7.803957e-01 -1.560714e-01  2.006180e+00
    endloop
  endfacet
  facet normal -9.951848e-01 -9.801732e-02  0.000000e+00
    outer loop
      vertex   8.042327e-01  1.910370e-07  2.006180e+00
      vertex   7.888609e-01  1.560724e-01  2.006180e+00
      vertex   7.888609e-01  1.560724e-01  1.880724e-01
    endloop
  endfacet
  facet normal -9.951848e-01 -9.801732e-02  0.000000e+00
    outer loop
      vertex   7.888609e-01  1.560724e-01  1.880724e-01
      vertex   8.042327e-01  1.910370e-07  1.880724e-01
      vertex   8.042327e-01  1.910370e-07  2.006180e+00
    endloop
  endfacet
  facet normal  4.713953e-01 -8.819220e-01  0.000000e+00
    outer loop
      vertex  -3.019130e-01  7.391042e-01  2.006180e+00
      vertex  -4.402226e-01  6.651765e-01  2.006180e+00
      vertex  -4.402226e-01  6.651765e-01  1.880724e-01
    endloop
  endfacet
  facet normal  4.713953e-01 -8.819220e-01  0.000000e+00
    outer loop
      vertex  -4.402226e-01  6.651765e-01  1.880724e-01
      vertex  -3.019130e-01  7.391042e-01  1.880724e-01
      vertex  -3.019130e-01  7.391042e-01  2.006180e+00
    endloop
  endfacet
  facet normal  4.713973e-01  8.819209e-01  0.000000e+00
    outer loop
      vertex  -4.402239e-01 -6.651753e-01  2.006180e+00
      vertex  -3.019144e-01 -7.391034e-01  2.006180e+00
      vertex  -3.019144e-01 -7.391034e-01  1.880724e-01
    endloop
  endfacet
  facet normal  4.713973e-01  8.819209e-01  0.000000e+00
    outer loop
      vertex  -3.019144e-01 -7.391034e-01  1.880724e-01
      vertex  -4.402239e-01 -6.651753e-01  1.880724e-01
      vertex  -4.402239e-01 -6.651753e-01  2.006180e+00
    endloop
  endfacet
  facet normal -6.343932e-01 -7.730106e-01  0.000000e+00
    outer loop
      vertex   5.699181e-01  5.656856e-01  2.006180e+00
      vertex   4.486889e-01  6.651758e-01  2.006180e+00
      vertex   4.486889e-01  6.651758e-01  1.880724e-01
    endloop
  endfacet
  facet normal -6.343932e-01 -7.730106e-01  0.000000e+00
    outer loop
      vertex   4.486889e-01  6.651758e-01  1.880724e-01
      vertex   5.699181e-01  5.656856e-01  1.880724e-01
      vertex   5.699181e-01  5.656856e-01  2.006180e+00
    endloop
  endfacet
  facet normal -2.902842e-01  9.569404e-01  0.000000e+00
    outer loop
      vertex   1.603047e-01 -7.846282e-01  2.006180e+00
      vertex   3.103793e-01 -7.391036e-01  2.006180e+00
      vertex   3.103793e-01 -7.391036e-01  1.880724e-01
    endloop
  endfacet
  facet normal -2.902842e-01  9.569404e-01  0.000000e+00
    outer loop
      vertex   3.103793e-01 -7.391036e-01  1.880724e-01
      vertex   1.603047e-01 -7.846282e-01  1.880724e-01
      vertex   1.603047e-01 -7.846282e-01  2.006180e+00
    endloop
  endfacet
  facet normal  9.569400e-01 -2.902857e-01  0.000000e+00
    outer loop
      vertex  -7.348706e-01  3.061477e-01  2.006180e+00
      vertex  -7.803954e-01  1.560732e-01  2.006180e+00
      vertex  -7.803954e-01  1.560732e-01  1.880724e-01
    endloop
  endfacet
  facet normal  9.569400e-01 -2.902857e-01  0.000000e+00
    outer loop
      vertex  -7.803954e-01  1.560732e-01  1.880724e-01
      vertex  -7.348706e-01  3.061477e-01  1.880724e-01
      vertex  -7.348706e-01  3.061477e-01  2.006180e+00
    endloop
  endfacet
  facet normal -8.819214e-01  4.713965e-01  0.000000e+00
    outer loop
      vertex   6.694084e-01 -4.444560e-01  2.006180e+00
      vertex   7.433363e-01 -3.061465e-01  2.006180e+00
      vertex   7.433363e-01 -3.061465e-01  1.880724e-01
    endloop
  endfacet
  facet normal -8.819214e-01  4.713965e-01  0.000000e+00
    outer loop
      vertex   7.433363e-01 -3.061465e-01  1.880724e-01
      vertex   6.694084e-01 -4.444560e-01  1.880724e-01
      vertex   6.694084e-01 -4.444560e-01  2.006180e+00
    endloop
  endfacet
  facet normal  8.819216e-01  4.713961e-01  0.000000e+00
    outer loop
      vertex  -7.348712e-01 -3.061460e-01  2.006180e+00
      vertex  -6.609433e-01 -4.444556e-01  2.006180e+00
      vertex  -6.609433e-01 -4.444556e-01  1.880724e-01
    endloop
  endfacet
  facet normal  8.819216e-01  4.713961e-01  0.000000e+00
    outer loop
      vertex  -6.609433e-01 -4.444556e-01  1.880724e-01
      vertex  -7.348712e-01 -3.061460e-01  1.880724e-01
      vertex  -7.348712e-01 -3.061460e-01  2.006180e+00
    endloop
  endfacet
  facet normal -9.569403e-01 -2.902848e-01  0.000000e+00
    outer loop
      vertex   7.888609e-01  1.560724e-01  2.006180e+00
      vertex   7.433363e-01  3.061469e-01  2.006180e+00
      vertex   7.433363e-01  3.061469e-01  1.880724e-01
    endloop
  endfacet
  facet normal -9.569403e-01 -2.902848e-01  0.000000e+00
    outer loop
      vertex   7.433363e-01  3.061469e-01  1.880724e-01
      vertex   7.888609e-01  1.560724e-01  1.880724e-01
      vertex   7.888609e-01  1.560724e-01  2.006180e+00
    endloop
  endfacet
  facet normal  2.902831e-01 -9.569408e-01  0.000000e+00
    outer loop
      vertex  -1.518384e-01  7.846286e-01  2.006180e+00
      vertex  -3.019130e-01  7.391042e-01  2.006180e+00
      vertex  -3.019130e-01  7.391042e-01  1.880724e-01
    endloop
  endfacet
  facet normal  2.902831e-01 -9.569408e-01  0.000000e+00
    outer loop
      vertex  -3.019130e-01  7.391042e-01  1.880724e-01
      vertex  -1.518384e-01  7.846286e-01  1.880724e-01
      vertex  -1.518384e-01  7.846286e-01  2.006180e+00
    endloop
  endfacet
  facet normal  6.343924e-01 -7.730111e-01  0.000000e+00
    outer loop
      vertex  -4.402226e-01  6.651765e-01  2.006180e+00
      vertex  -5.614520e-01  5.656863e-01  2.006180e+00
      vertex  -5.614520e-01  5.656863e-01  1.880724e-01
    endloop
  endfacet
  facet normal  6.343924e-01 -7.730111e-01  0.000000e+00
    outer loop
      vertex  -5.614520e-01  5.656863e-01  1.880724e-01
      vertex  -4.402226e-01  6.651765e-01  1.880724e-01
      vertex  -4.402226e-01  6.651765e-01  2.006180e+00
    endloop
  endfacet
  facet normal  2.902850e-01  9.569402e-01  0.000000e+00
    outer loop
      vertex  -3.019144e-01 -7.391034e-01  2.006180e+00
      vertex  -1.518399e-01 -7.846280e-01  2.006180e+00
      vertex  -1.518399e-01 -7.846280e-01  1.880724e-01
    endloop
  endfacet
  facet normal  2.902850e-01  9.569402e-01  0.000000e+00
    outer loop
      vertex  -1.518399e-01 -7.846280e-01  1.880724e-01
      vertex  -3.019144e-01 -7.391034e-01  1.880724e-01
      vertex  -3.019144e-01 -7.391034e-01  2.006180e+00
    endloop
  endfacet
  facet normal -4.713968e-01 -8.819212e-01  0.000000e+00
    outer loop
      vertex   4.486889e-01  6.651758e-01  2.006180e+00
      vertex   3.103794e-01  7.391037e-01  2.006180e+00
      vertex   3.103794e-01  7.391037e-01  1.880724e-01
    endloop
  endfacet
  facet normal -4.713968e-01 -8.819212e-01  0.000000e+00
    outer loop
      vertex   3.103794e-01  7.391037e-01  1.880724e-01
      vertex   4.486889e-01  6.651758e-01  1.880724e-01
      vertex   4.486889e-01  6.651758e-01  2.006180e+00
    endloop
  endfacet
  facet normal -4.713967e-01  8.819212e-01  0.000000e+00
    outer loop
      vertex   3.103793e-01 -7.391036e-01  2.006180e+00
      vertex   4.486888e-01 -6.651756e-01  2.006180e+00
      vertex   4.486888e-01 -6.651756e-01  1.880724e-01
    endloop
  endfacet
  facet normal -4.713967e-01  8.819212e-01  0.000000e+00
    outer loop
      vertex   4.486888e-01 -6.651756e-01  1.880724e-01
      vertex   3.103793e-01 -7.391036e-01  1.880724e-01
      vertex   3.103793e-01 -7.391036e-01  2.006180e+00
    endloop
  endfacet
  facet normal  9.951845e-01 -9.801839e-02  0.000000e+00
    outer loop
      vertex  -7.803954e-01  1.560732e-01  2.006180e+00
      vertex  -7.957674e-01  9.031180e-07  2.006180e+00
      vertex  -7.957674e-01  9.031180e-07  1.880724e-01
    endloop
  endfacet
  facet normal  9.951845e-01 -9.801839e-02  0.000000e+00
    outer loop
      vertex  -7.957674e-01  9.031180e-07  1.880724e-01
      vertex  -7.803954e-01  1.560732e-01  1.880724e-01
      vertex  -7.803954e-01  1.560732e-01  2.006180e+00
    endloop
  endfacet
  facet normal -9.569403e-01  2.902847e-01  0.000000e+00
    outer loop
      vertex   7.433363e-01 -3.061465e-01  2.006180e+00
      vertex   7.888609e-01 -1.560720e-01  2.006180e+00
      vertex   7.888609e-01 -1.560720e-01  1.880724e-01
    endloop
  endfacet
  facet normal -9.569403e-01  2.902847e-01  0.000000e+00
    outer loop
      vertex   7.888609e-01 -1.560720e-01  1.880724e-01
      vertex   7.433363e-01 -3.061465e-01  1.880724e-01
      vertex   7.433363e-01 -3.061465e-01  2.006180e+00
    endloop
  endfacet
  facet normal  7.730111e-01  6.343925e-01  0.000000e+00
    outer loop
      vertex  -6.609433e-01 -4.444556e-01  2.006180e+00
      vertex  -5.614532e-01 -5.656850e-01  2.006180e+00
      vertex  -5.614532e-01 -5.656850e-01  1.880724e-01
    endloop
  endfacet
  facet normal  7.730111e-01  6.343925e-01  0.000000e+00
    outer loop
      vertex  -5.614532e-01 -5.656850e-01  1.880724e-01
      vertex  -6.609433e-01 -4.444556e-01  1.880724e-01
      vertex  -6.609433e-01 -4.444556e-01  2.006180e+00
    endloop
  endfacet
  facet normal -8.819214e-01 -4.713965e-01  0.000000e+00
    outer loop
      vertex   7.433363e-01  3.061469e-01  2.006180e+00
      vertex   6.694084e-01  4.444563e-01  2.006180e+00
      vertex   6.694084e-01  4.444563e-01  1.880724e-01
    endloop
  endfacet
  facet normal -8.819214e-01 -4.713965e-01  0.000000e+00
    outer loop
      vertex   6.694084e-01  4.444563e-01  1.880724e-01
      vertex   7.433363e-01  3.061469e-01  1.880724e-01
      vertex   7.433363e-01  3.061469e-01  2.006180e+00
    endloop
  endfacet
  facet normal  7.730096e-01 -6.343943e-01  0.000000e+00
    outer loop
      vertex  -5.614520e-01  5.656863e-01  2.006180e+00
      vertex  -6.609425e-01  4.444571e-01  2.006180e+00
      vertex  -6.609425e-01  4.444571e-01  1.880724e-01
    endloop
  endfacet
  facet normal  7.730096e-01 -6.343943e-01  0.000000e+00
    outer loop
      vertex  -6.609425e-01  4.444571e-01  1.880724e-01
      vertex  -5.614520e-01  5.656863e-01  1.880724e-01
      vertex  -5.614520e-01  5.656863e-01  2.006180e+00
    endloop
  endfacet
  facet normal  9.801725e-02  9.951847e-01  0.000000e+00
    outer loop
      vertex  -1.518399e-01 -7.846280e-01  2.006180e+00
      vertex   4.232408e-03 -7.999998e-01  2.006180e+00
      vertex   4.232408e-03 -7.999998e-01  1.880724e-01
    endloop
  endfacet
  facet normal  9.801725e-02  9.951847e-01  0.000000e+00
    outer loop
      vertex   4.232408e-03 -7.999998e-01  1.880724e-01
      vertex  -1.518399e-01 -7.846280e-01  1.880724e-01
      vertex  -1.518399e-01 -7.846280e-01  2.006180e+00
    endloop
  endfacet
  facet normal -2.902846e-01 -9.569403e-01  0.000000e+00
    outer loop
      vertex   3.103794e-01  7.391037e-01  2.006180e+00
      vertex   1.603049e-01  7.846283e-01  2.006180e+00
      vertex   1.603049e-01  7.846283e-01  1.880724e-01
    endloop
  endfacet
  facet normal -2.902846e-01 -9.569403e-01  0.000000e+00
    outer loop
      vertex   1.603049e-01  7.846283e-01  1.880724e-01
      vertex   3.103794e-01  7.391037e-01  1.880724e-01
      vertex   3.103794e-01  7.391037e-01  2.006180e+00
    endloop
  endfacet
  facet normal -6.343933e-01  7.730105e-01  0.000000e+00
    outer loop
      vertex   4.486888e-01 -6.651756e-01  2.006180e+00
      vertex   5.699181e-01 -5.656853e-01  2.006180e+00
      vertex   5.699181e-01 -5.656853e-01  1.880724e-01
    endloop
  endfacet
  facet normal -6.343933e-01  7.730105e-01  0.000000e+00
    outer loop
      vertex   5.699181e-01 -5.656853e-01  1.880724e-01
      vertex   4.486888e-01 -6.651756e-01  1.880724e-01
      vertex   4.486888e-01 -6.651756e-01  2.006180e+00
    endloop
  endfacet
  facet normal  9.951848e-01  9.801647e-02  0.000000e+00
    outer loop
      vertex  -7.957674e-01  9.031180e-07  2.006180e+00
      vertex  -7.803957e-01 -1.560714e-01  2.006180e+00
      vertex  -7.803957e-01 -1.560714e-01  1.880724e-01
    endloop
  endfacet
  facet normal  9.951848e-01  9.801647e-02  0.000000e+00
    outer loop
      vertex  -7.803957e-01 -1.560714e-01  1.880724e-01
      vertex  -7.957674e-01  9.031180e-07  1.880724e-01
      vertex  -7.957674e-01  9.031180e-07  2.006180e+00
    endloop
  endfacet
  facet normal -9.951848e-01  9.801694e-02  0.000000e+00
    outer loop
      vertex   7.888609e-01 -1.560720e-01  2.006180e+00
      vertex   8.042327e-01  1.910370e-07  2.006180e+00
      vertex   8.042327e-01  1.910370e-07  1.880724e-01
    endloop
  endfacet
  facet normal -9.951848e-01  9.801694e-02  0.000000e+00
    outer loop
      vertex   8.042327e-01  1.910370e-07  1.880724e-01
      vertex   7.888609e-01 -1.560720e-01  1.880724e-01
      vertex   7.888609e-01 -1.560720e-01  2.006180e+00
    endloop
  endfacet
  facet normal  6.343935e-01  7.730103e-01  0.000000e+00
    outer loop
      vertex  -5.614532e-01 -5.656850e-01  2.006180e+00
      vertex  -4.402239e-01 -6.651753e-01  2.006180e+00
      vertex  -4.402239e-01 -6.651753e-01  1.880724e-01
    endloop
  endfacet
  facet normal  6.343935e-01  7.730103e-01  0.000000e+00
    outer loop
      vertex  -4.402239e-01 -6.651753e-01  1.880724e-01
      vertex  -5.614532e-01 -5.656850e-01  1.880724e-01
      vertex  -5.614532e-01 -5.656850e-01  2.006180e+00
    endloop
  endfacet
  facet normal -7.730106e-01 -6.343932e-01  0.000000e+00
    outer loop
      vertex   6.694084e-01  4.444563e-01  2.006180e+00
      vertex   5.699181e-01  5.656856e-01  2.006180e+00
      vertex   5.699181e-01  5.656856e-01  1.880724e-01
    endloop
  endfacet
  facet normal -7.730106e-01 -6.343932e-01  0.000000e+00
    outer loop
      vertex   5.699181e-01  5.656856e-01  1.880724e-01
      vertex   6.694084e-01  4.444563e-01  1.880724e-01
      vertex   6.694084e-01  4.444563e-01  2.006180e+00
    endloop
  endfacet
  facet normal -9.801649e-02  9.951848e-01  0.000000e+00
    outer loop
      vertex   4.232408e-03 -7.999998e-01  2.006180e+00
      vertex   1.603047e-01 -7.846282e-01  2.006180e+00
      vertex   1.603047e-01 -7.846282e-01  1.880724e-01
    endloop
  endfacet
  facet normal -9.801649e-02  9.951848e-01  0.000000e+00
    outer loop
      vertex   1.603047e-01 -7.846282e-01  1.880724e-01
      vertex   4.232408e-03 -7.999998e-01  1.880724e-01
      vertex   4.232408e-03 -7.999998e-01  2.006180e+00
    endloop
  endfacet
  facet normal  9.801652e-02 -9.951847e-01  0.000000e+00
    outer loop
      vertex   4.232669e-03  8.000001e-01  2.006180e+00
      vertex  -1.518384e-01  7.846286e-01  2.006180e+00
      vertex  -1.518384e-01  7.846286e-01  1.880724e-01
    endloop
  endfacet
  facet normal  9.801652e-02 -9.951847e-01  0.000000e+00
    outer loop
      vertex  -1.518384e-01  7.846286e-01  1.880724e-01
      vertex   4.232669e-03  8.000001e-01  1.880724e-01
      vertex   4.232669e-03  8.000001e-01  2.006180e+00
    endloop
  endfacet
  facet normal  8.819208e-01 -4.713976e-01  0.000000e+00
    outer loop
      vertex  -6.609425e-01  4.444571e-01  2.006180e+00
      vertex  -7.348706e-01  3.061477e-01  2.006180e+00
      vertex  -7.348706e-01  3.061477e-01  1.880724e-01
    endloop
  endfacet
  facet normal  8.819208e-01 -4.713976e-01  0.000000e+00
    outer loop
      vertex  -7.348706e-01  3.061477e-01  1.880724e-01
      vertex  -6.609425e-01  4.444571e-01  1.880724e-01
      vertex  -6.609425e-01  4.444571e-01  2.006180e+00
    endloop
  endfacet
  facet normal -2.326139e-02 -4.351900e-02  9.987818e-01
    outer loop
      vertex   4.486889e-01  6.651758e-01  1.880724e-01
      vertex   3.103794e-01  7.391037e-01  1.880724e-01
      vertex   4.232747e-03  3.493132e-07  1.487381e-01
    endloop
  endfacet
  facet normal -2.326138e-02  4.351898e-02  9.987818e-01
    outer loop
      vertex   3.103793e-01 -7.391036e-01  1.880724e-01
      vertex   4.486888e-01 -6.651756e-01  1.880724e-01
      vertex   4.232747e-03  3.493132e-07  1.487381e-01
    endloop
  endfacet
  facet normal  4.910804e-02 -4.836782e-03  9.987818e-01
    outer loop
      vertex  -7.803954e-01  1.560732e-01  1.880724e-01
      vertex  -7.957674e-01  9.031180e-07  1.880724e-01
      vertex   4.232747e-03  3.493132e-07  1.487381e-01
    endloop
  endfacet
  facet normal -3.814473e-02 -3.130456e-02  9.987818e-01
    outer loop
      vertex   6.694084e-01  4.444563e-01  1.880724e-01
      vertex   5.699181e-01  5.656856e-01  1.880724e-01
      vertex   4.232747e-03  3.493132e-07  1.487381e-01
    endloop
  endfacet
  facet normal -4.836687e-03  4.910804e-02  9.987818e-01
    outer loop
      vertex   4.232408e-03 -7.999998e-01  1.880724e-01
      vertex   1.603047e-01 -7.846282e-01  1.880724e-01
      vertex   4.232747e-03  3.493132e-07  1.487381e-01
    endloop
  endfacet
  facet normal  4.351897e-02 -2.326143e-02  9.987818e-01
    outer loop
      vertex  -6.609425e-01  4.444571e-01  1.880724e-01
      vertex  -7.348706e-01  3.061477e-01  1.880724e-01
      vertex   4.232747e-03  3.493132e-07  1.487381e-01
    endloop
  endfacet
  facet normal -4.722086e-02 -1.432430e-02  9.987818e-01
    outer loop
      vertex   7.888609e-01  1.560724e-01  1.880724e-01
      vertex   7.433363e-01  3.061469e-01  1.880724e-01
      vertex   4.232747e-03  3.493132e-07  1.487381e-01
    endloop
  endfacet
  facet normal  3.130452e-02 -3.814476e-02  9.987818e-01
    outer loop
      vertex  -4.402226e-01  6.651765e-01  1.880724e-01
      vertex  -5.614520e-01  5.656863e-01  1.880724e-01
      vertex   4.232747e-03  3.493132e-07  1.487381e-01
    endloop
  endfacet
  facet normal  1.432430e-02  4.722083e-02  9.987818e-01
    outer loop
      vertex  -3.019144e-01 -7.391034e-01  1.880724e-01
      vertex  -1.518399e-01 -7.846280e-01  1.880724e-01
      vertex   4.232747e-03  3.493132e-07  1.487381e-01
    endloop
  endfacet
  facet normal -4.910805e-02  4.836711e-03  9.987818e-01
    outer loop
      vertex   7.888609e-01 -1.560720e-01  1.880724e-01
      vertex   8.042327e-01  1.910370e-07  1.880724e-01
      vertex   4.232747e-03  3.493132e-07  1.487381e-01
    endloop
  endfacet
  facet normal  1.432421e-02 -4.722089e-02  9.987817e-01
    outer loop
      vertex  -1.518384e-01  7.846286e-01  1.880724e-01
      vertex  -3.019130e-01  7.391042e-01  1.880724e-01
      vertex   4.232747e-03  3.493132e-07  1.487381e-01
    endloop
  endfacet
  facet normal  3.130456e-02  3.814469e-02  9.987818e-01
    outer loop
      vertex  -5.614532e-01 -5.656850e-01  1.880724e-01
      vertex  -4.402239e-01 -6.651753e-01  1.880724e-01
      vertex   4.232747e-03  3.493132e-07  1.487381e-01
    endloop
  endfacet
  facet normal -4.351899e-02  2.326137e-02  9.987817e-01
    outer loop
      vertex   6.694084e-01 -4.444560e-01  1.880724e-01
      vertex   7.433363e-01 -3.061465e-01  1.880724e-01
      vertex   4.232747e-03  3.493132e-07  1.487381e-01
    endloop
  endfacet
  facet normal  4.351899e-02  2.326134e-02  9.987817e-01
    outer loop
      vertex  -7.348712e-01 -3.061460e-01  1.880724e-01
      vertex  -6.609433e-01 -4.444556e-01  1.880724e-01
      vertex   4.232747e-03  3.493132e-07  1.487381e-01
    endloop
  endfacet
  facet normal -1.432429e-02 -4.722087e-02  9.987818e-01
    outer loop
      vertex   3.103794e-01  7.391037e-01  1.880724e-01
      vertex   1.603049e-01  7.846283e-01  1.880724e-01
      vertex   4.232747e-03  3.493132e-07  1.487381e-01
    endloop
  endfacet
  facet normal -3.130455e-02  3.814470e-02  9.987818e-01
    outer loop
      vertex   4.486888e-01 -6.651756e-01  1.880724e-01
      vertex   5.699181e-01 -5.656853e-01  1.880724e-01
      vertex   4.232747e-03  3.493132e-07  1.487381e-01
    endloop
  endfacet
  facet normal  4.910804e-02  4.836687e-03  9.987817e-01
    outer loop
      vertex  -7.957674e-01  9.031180e-07  1.880724e-01
      vertex  -7.803957e-01 -1.560714e-01  1.880724e-01
      vertex   4.232747e-03  3.493132e-07  1.487381e-01
    endloop
  endfacet
  facet normal -3.130456e-02 -3.814473e-02  9.987818e-01
    outer loop
      vertex   5.699181e-01  5.656856e-01  1.880724e-01
      vertex   4.486889e-01  6.651758e-01  1.880724e-01
      vertex   4.232747e-03  3.493132e-07  1.487381e-01
    endloop
  endfacet
  facet normal -1.432426e-02  4.722084e-02  9.987817e-01
    outer loop
      vertex   1.603047e-01 -7.846282e-01  1.880724e-01
      vertex   3.103793e-01 -7.391036e-01  1.880724e-01
      vertex   4.232747e-03  3.493132e-07  1.487381e-01
    endloop
  endfacet
  facet normal  4.722084e-02 -1.432434e-02  9.987818e-01
    outer loop
      vertex  -7.348706e-01  3.061477e-01  1.880724e-01
      vertex  -7.803954e-01  1.560732e-01  1.880724e-01
      vertex   4.232747e-03  3.493132e-07  1.487381e-01
    endloop
  endfacet
  facet normal -4.351901e-02 -2.326138e-02  9.987818e-01
    outer loop
      vertex   7.433363e-01  3.061469e-01  1.880724e-01
      vertex   6.694084e-01  4.444563e-01  1.880724e-01
      vertex   4.232747e-03  3.493132e-07  1.487381e-01
    endloop
  endfacet
  facet normal  3.814467e-02 -3.130461e-02  9.987818e-01
    outer loop
      vertex  -5.614520e-01  5.656863e-01  1.880724e-01
      vertex  -6.609425e-01  4.444571e-01  1.880724e-01
      vertex   4.232747e-03  3.493132e-07  1.487381e-01
    endloop
  endfacet
  facet normal  4.836725e-03  4.910804e-02  9.987818e-01
    outer loop
      vertex  -1.518399e-01 -7.846280e-01  1.880724e-01
      vertex   4.232408e-03 -7.999998e-01  1.880724e-01
      vertex   4.232747e-03  3.493132e-07  1.487381e-01
    endloop
  endfacet
  facet normal -4.910805e-02 -4.836729e-03  9.987818e-01
    outer loop
      vertex   8.042327e-01  1.910370e-07  1.880724e-01
      vertex   7.888609e-01  1.560724e-01  1.880724e-01
      vertex   4.232747e-03  3.493132e-07  1.487381e-01
    endloop
  endfacet
  facet normal  2.326132e-02 -4.351903e-02  9.987818e-01
    outer loop
      vertex  -3.019130e-01  7.391042e-01  1.880724e-01
      vertex  -4.402226e-01  6.651765e-01  1.880724e-01
      vertex   4.232747e-03  3.493132e-07  1.487381e-01
    endloop
  endfacet
  facet normal  2.326140e-02  4.351896e-02  9.987818e-01
    outer loop
      vertex  -4.402239e-01 -6.651753e-01  1.880724e-01
      vertex  -3.019144e-01 -7.391034e-01  1.880724e-01
      vertex   4.232747e-03  3.493132e-07  1.487381e-01
    endloop
  endfacet
  facet normal -4.722086e-02  1.432429e-02  9.987818e-01
    outer loop
      vertex   7.433363e-01 -3.061465e-01  1.880724e-01
      vertex   7.888609e-01 -1.560720e-01  1.880724e-01
      vertex   4.232747e-03  3.493132e-07  1.487381e-01
    endloop
  endfacet
  facet normal  4.836691e-03 -4.910807e-02  9.987817e-01
    outer loop
      vertex   4.232669e-03  8.000001e-01  1.880724e-01
      vertex  -1.518384e-01  7.846286e-01  1.880724e-01
      vertex   4.232747e-03  3.493132e-07  1.487381e-01
    endloop
  endfacet
  facet normal  3.814473e-02  3.130450e-02  9.987817e-01
    outer loop
      vertex  -6.609433e-01 -4.444556e-01  1.880724e-01
      vertex  -5.614532e-01 -5.656850e-01  1.880724e-01
      vertex   4.232747e-03  3.493132e-07  1.487381e-01
    endloop
  endfacet
  facet normal -4.836729e-03 -4.910806e-02  9.987818e-01
    outer loop
      vertex   1.603049e-01  7.846283e-01  1.880724e-01
      vertex   4.232669e-03  8.000001e-01  1.880724e-01
      vertex   4.232747e-03  3.493132e-07  1.487381e-01
    endloop
  endfacet
  facet normal -3.814472e-02  3.130455e-02  9.987818e-01
    outer loop
      vertex   5.699181e-01 -5.656853e-01  1.880724e-01
      vertex   6.694084e-01 -4.444560e-01  1.880724e-01
      vertex   4.232747e-03  3.493132e-07  1.487381e-01
    endloop
  endfacet
  facet normal  4.722085e-02  1.432424e-02  9.987817e-01
    outer loop
      vertex  -7.803957e-01 -1.560714e-01  1.880724e-01
      vertex  -7.348712e-01 -3.061460e-01  1.880724e-01
      vertex   4.232747e-03  3.493132e-07  1.487381e-01
    endloop
  endfacet
endsolid vcg
